Coordinates
version=1
nRows=4
nColumns=63
inDegrees=yes

Units are S.I. units (second, meters, Newtons, ...)
If the header above contains a line with 'inDegrees', this indicates whether rotational values are in degrees (yes) or radians (no).

endheader
time	pelvis_tilt	pelvis_list	pelvis_rotation	pelvis_tx	pelvis_ty	pelvis_tz	hip_flexion_r	hip_adduction_r	hip_rotation_r	knee_angle_r	knee_angle_r_beta	ankle_angle_r	subtalar_angle_r	mtp_angle_r	hip_flexion_l	hip_adduction_l	hip_rotation_l	knee_angle_l	knee_angle_l_beta	ankle_angle_l	subtalar_angle_l	mtp_angle_l	L5_S1_Flex_Ext	L5_S1_Lat_Bending	L5_S1_axial_rotation	L4_L5_Flex_Ext	L4_L5_Lat_Bending	L4_L5_axial_rotation	L3_L4_Flex_Ext	L3_L4_Lat_Bending	L3_L4_axial_rotation	L2_L3_Flex_Ext	L2_L3_Lat_Bending	L2_L3_axial_rotation	L1_L2_Flex_Ext	L1_L2_Lat_Bending	L1_L2_axial_rotation	L1_T12_Flex_Ext	L1_T12_Lat_Bending	L1_T12_axial_rotation	Abs_r3	Abs_r2	Abs_r1	Abs_t1	Abs_t2	neck_flexion	neck_bending	neck_rotation	arm_flex_r	arm_add_r	arm_rot_r	elbow_flex_r	pro_sup_r	wrist_flex_r	wrist_dev_r	arm_flex_l	arm_add_l	arm_rot_l	elbow_flex_l	pro_sup_l	wrist_flex_l	wrist_dev_l
      3.05000000	      6.27927571	     -0.88258687	     98.00200741	      0.22009571	      0.84797340	      0.53001919	    -10.76349673	      6.49703480	     10.82689637	      0.24197805	      0.00422331	     17.78140133	    -14.84381222	      0.00000000	    -10.51694343	     -5.11024588	      1.42500915	      0.13330628	      0.00232663	     28.72273700	     -1.71395511	      0.00000000	     -0.43042074	      0.90615204	      0.36684279	     -0.79933435	      1.20518222	      0.38977047	     -0.70713823	      2.20321808	      0.38977047	     -0.49192786	      2.20321808	      0.32098745	     -0.39968870	      1.84782525	      0.29805977	     -0.24594241	      1.40362952	      0.27513210	     -3.07445228	     10.25057315	      2.04026957	      0.00000000	      0.00000000	     25.96438858	     -2.69343174	     11.40902510	      5.96607000	    -17.41188884	    117.15211502	     10.54074189	      4.03887049	     -7.53046656	     -7.42249191	      6.99310272	     -6.24913630	    154.75518597	      4.97837910	      7.46969114	    -11.39111495	     -7.48500834
      3.06666667	      6.26028391	     -0.77846795	     97.88709640	      0.22011743	      0.84806028	      0.52971702	    -10.91943799	      6.46947975	     10.05166649	      0.23623917	      0.00412315	     18.00181005	    -13.76635601	      0.00000000	    -10.68900844	     -5.08585731	      1.19727825	      0.13084984	      0.00228376	     28.82930146	     -1.36760883	      0.00000000	     -0.45445579	      0.90871191	      0.40537015	     -0.84396986	      1.20858684	      0.43070579	     -0.74662542	      2.20944214	      0.43070579	     -0.51939753	      2.20944214	      0.35469888	     -0.42200765	      1.85304533	      0.32936325	     -0.25967604	      1.40759475	      0.30402761	     -3.24613229	     10.27953088	      2.25454717	      0.00000000	      0.00000000	     26.15068786	     -2.62988029	     11.53520857	      5.82492805	    -17.46840268	    116.30899712	     10.57549759	      4.14378657	     -7.27279249	     -7.39275096	      6.93378678	     -6.22032266	    153.62036248	      4.78511197	      7.25218738	    -11.37811403	     -7.92385046
      3.08333333	      6.25817524	     -0.72507431	     97.86843733	      0.21997771	      0.84808169	      0.52939079	    -11.00888820	      6.46491411	      9.58793250	      0.23077019	      0.00402770	     18.22966866	    -13.11785485	      0.00000000	    -10.75949541	     -5.08398925	      1.21881178	      0.12842781	      0.00224149	     29.05038736	     -1.19168679	      0.00000000	     -0.46724549	      0.91293166	      0.41924221	     -0.86772161	      1.21419911	      0.44544484	     -0.76763762	      2.21970203	      0.44544484	     -0.53401487	      2.21970203	      0.36683693	     -0.43388417	      1.86165024	      0.34063429	     -0.26698408	      1.41413114	      0.31443166	     -3.33748784	     10.32726551	      2.33169938	      0.00000000	      0.00000000	     26.31000078	     -2.68800926	     11.64514974	      5.71308185	    -17.53804390	    115.78300740	     10.65580216	      4.32326539	     -7.00986066	     -7.30775245	      6.72570240	     -6.19169749	    152.12649277	      4.43760413	      6.74120188	    -11.32829331	     -8.55380623
      3.10000000	      6.25652913	     -0.78546587	     97.65910402	      0.22007433	      0.84803430	      0.52892731	    -10.96831169	      6.40909150	     10.72495398	      0.22964668	      0.00400809	     17.87300322	    -14.55283884	      0.00000000	    -10.73037639	     -5.02262782	      0.96647540	      0.12521737	      0.00218546	     29.31506174	     -0.98770210	      0.00000000	     -0.45746837	      0.91585038	      0.46772072	     -0.84956451	      1.21808100	      0.49695326	     -0.75157478	      2.22679861	      0.49695326	     -0.52284060	      2.22679861	      0.40925563	     -0.42480513	      1.86760209	      0.38002308	     -0.26139743	      1.41865223	      0.35079054	     -3.26765081	     10.36028264	      2.60132230	      0.00000000	      0.00000000	     26.37478602	     -2.76230261	     11.76806407	      5.64260756	    -17.49749757	    116.95070267	     10.51395529	      4.12625422	     -6.87503750	     -7.01140598	      6.45290338	     -6.09284046	    151.72853175	      4.02960774	      5.14837033	    -11.33053760	     -8.88143816
